<?xml version="1.0" encoding="utf-8"?>
<!-- Generator: Adobe Illustrator 23.0.0, SVG Export Plug-In . SVG Version: 6.00 Build 0)  -->
<svg version="1.1" id="Layer_1" xmlns="http://www.w3.org/2000/svg" xmlns:xlink="http://www.w3.org/1999/xlink" x="0px" y="0px"
	 viewBox="0 0 108.8 152.8" style="enable-background:new 0 0 108.8 152.8;" xml:space="preserve">
<style type="text/css">
	.st0{fill:#FFFFFF;}
</style>
<title>Asset 1</title>
<g>
	<g id="Layer_1-2">
		<path class="st0" d="M97.7,65.4l11-11L54.4,0L0,54.4l11,11l-11,11l11,11l-11,11l54.4,54.4l54.4-54.4l-11-11l11-11L97.7,65.4z
			 M9.7,54.4L54.4,9.7L99,54.4l-6.2,6.2L54.4,22.1L15.9,60.5L9.7,54.4z M54.4,99L31.8,76.4l22.6-22.6L77,76.4L54.4,99z M81.9,81.2
			l6.1,6.2l-33.6,33.7L20.7,87.4l6.2-6.2l27.5,27.5L81.9,81.2z M54.4,44L26.9,71.5l-6.1-6.1l33.6-33.6L88,65.4l-6.1,6.1L54.4,44z
			 M9.7,76.4l6.2-6.2l6.1,6.1l-6.2,6.2L9.7,76.4z M99,98.4L54.4,143L9.7,98.4l6.1-6.1l38.5,38.5l38.5-38.5L99,98.4z M86.7,76.4
			l6.1-6.1l6.2,6.2l-6.1,6.1L86.7,76.4z"/>
	</g>
</g>
</svg>
